<svg xmlns="http://www.w3.org/2000/svg" viewBox="0 0 480 420" role="img" aria-labelledby="title desc">
  <title id="title">Abstract AI learning illustration</title>
  <desc id="desc">Gradient shapes and constellations representing AI skill building.</desc>
  <defs>
    <linearGradient id="bgGradient" x1="0" y1="0" x2="1" y2="1">
      <stop offset="0%" stop-color="#0b2855" />
      <stop offset="50%" stop-color="#1a3d91" />
      <stop offset="100%" stop-color="#1f56c1" />
    </linearGradient>
    <radialGradient id="sphereGradient" cx="50%" cy="50%" r="50%">
      <stop offset="0%" stop-color="#90c4ff" stop-opacity="0.95" />
      <stop offset="70%" stop-color="#3f7bfd" stop-opacity="0.65" />
      <stop offset="100%" stop-color="#1f3d8a" stop-opacity="0.9" />
    </radialGradient>
    <linearGradient id="waveGradient" x1="0" y1="1" x2="1" y2="0">
      <stop offset="0%" stop-color="#3d9dfd" stop-opacity="0.2" />
      <stop offset="60%" stop-color="#8fbcff" stop-opacity="0.35" />
      <stop offset="100%" stop-color="#c7dfff" stop-opacity="0" />
    </linearGradient>
  </defs>
  <rect width="480" height="420" rx="32" fill="url(#bgGradient)" />
  <circle cx="320" cy="150" r="110" fill="url(#sphereGradient)" opacity="0.85" />
  <path d="M60 310C140 250 220 260 320 320C390 360 430 340 440 320" fill="none" stroke="url(#waveGradient)" stroke-width="38" stroke-linecap="round" opacity="0.6" />
  <path d="M110 90c18 0 34 10 42 26l-42 24-42-24c8-16 24-26 42-26z" fill="#6fa9ff" opacity="0.65" />
  <path d="M120 210l18 30 34 6-24 24 6 34-30-18-30 18 6-34-24-24 34-6z" fill="#f7faff" opacity="0.9" />
  <g stroke="#f7faff" stroke-width="2" stroke-linecap="round" stroke-linejoin="round" opacity="0.85">
    <circle cx="150" cy="140" r="32" fill="none" />
    <path d="M150 108V92" />
    <path d="M150 188v-16" />
    <path d="M118 140h16" />
    <path d="M166 140h16" />
    <circle cx="190" cy="110" r="4" fill="#f7faff" />
    <circle cx="230" cy="160" r="4" fill="#f7faff" />
    <circle cx="110" cy="180" r="4" fill="#f7faff" />
  </g>
  <g opacity="0.55" fill="#dce9ff">
    <circle cx="72" cy="60" r="4" />
    <circle cx="416" cy="84" r="3" />
    <circle cx="410" cy="250" r="5" />
    <circle cx="210" cy="320" r="3" />
  </g>
</svg>
