<svg width="360" height="280" viewBox="0 0 360 280" fill="none" xmlns="http://www.w3.org/2000/svg">
  <rect x="32" y="40" width="296" height="200" rx="28" fill="#E0E7FF" />
  <rect x="68" y="76" width="224" height="128" rx="20" fill="#4338CA" />
  <path d="M180 68C206.509 68 228 89.4903 228 116V128H132V116C132 89.4903 153.491 68 180 68Z" fill="#6366F1" />
  <circle cx="180" cy="156" r="28" fill="#EEF2FF" />
  <path d="M180 144C186.627 144 192 149.373 192 156C192 161.497 188.216 166.147 183 167.584V176H177V167.584C171.784 166.147 168 161.497 168 156C168 149.373 173.373 144 180 144Z" fill="#4338CA" />
  <circle cx="276" cy="196" r="18" fill="#A5B4FC" />
  <path d="M264 196L270 204L288 180" stroke="#F4F4FF" stroke-width="6" stroke-linecap="round" stroke-linejoin="round" />
</svg>
