<svg width="480" height="360" viewBox="0 0 480 360" fill="none" xmlns="http://www.w3.org/2000/svg">
  <defs>
    <linearGradient id="paint0_linear" x1="72" y1="48" x2="348" y2="320" gradientUnits="userSpaceOnUse">
      <stop stop-color="#4F46E5" />
      <stop offset="1" stop-color="#4338CA" />
    </linearGradient>
    <linearGradient id="paint1_linear" x1="180" y1="96" x2="412" y2="288" gradientUnits="userSpaceOnUse">
      <stop stop-color="#FFFFFF" stop-opacity="0.25" />
      <stop offset="1" stop-color="#A5B4FC" stop-opacity="0.05" />
    </linearGradient>
    <clipPath id="clip0">
      <rect x="40" y="40" width="400" height="280" rx="28" />
    </clipPath>
  </defs>
  <rect opacity="0.12" x="56" y="32" width="368" height="296" rx="32" fill="#6366F1" />
  <g clip-path="url(#clip0)">
    <rect x="40" y="40" width="400" height="280" rx="28" fill="url(#paint0_linear)" />
    <rect x="64" y="64" width="352" height="232" rx="20" fill="#1E1B4B" opacity="0.2" />
    <rect x="88" y="88" width="304" height="184" rx="20" fill="#EEF2FF" opacity="0.08" />
    <path d="M132 248C132 220.386 154.386 198 182 198H298C325.614 198 348 220.386 348 248V320H132V248Z" fill="#1E1B4B" opacity="0.35" />
    <path d="M124 156C124 135.013 141.013 118 162 118H246C266.987 118 284 135.013 284 156V248H124V156Z" fill="#312E81" opacity="0.65" />
    <rect x="148" y="142" width="84" height="12" rx="6" fill="#C7D2FE" />
    <rect x="148" y="166" width="116" height="12" rx="6" fill="#E0E7FF" opacity="0.65" />
    <rect x="148" y="190" width="132" height="12" rx="6" fill="#E0E7FF" opacity="0.35" />
    <path d="M326 94C331.523 94 336 98.4772 336 104V198C336 203.523 331.523 208 326 208H214C208.477 208 204 203.523 204 198V104C204 98.4772 208.477 94 214 94H326Z" fill="#1E1B4B" opacity="0.25" />
    <path d="M312 108H228C221.373 108 216 113.373 216 120V182C216 188.627 221.373 194 228 194H312C318.627 194 324 188.627 324 182V120C324 113.373 318.627 108 312 108Z" fill="#EEF2FF" opacity="0.45" />
    <path d="M260 154L272 170L296 142" stroke="#C7D2FE" stroke-width="6" stroke-linecap="round" stroke-linejoin="round" />
    <circle cx="352" cy="116" r="56" fill="#312E81" opacity="0.6" />
    <path d="M352 88L368 132H336L352 88Z" fill="#A5B4FC" />
    <rect x="344" y="132" width="16" height="52" rx="8" fill="#818CF8" />
    <path d="M104 296C104 266.863 127.863 243 157 243H213C242.137 243 266 266.863 266 296H104Z" fill="url(#paint1_linear)" />
    <circle cx="116" cy="130" r="20" fill="#4338CA" opacity="0.6" />
    <path d="M116 118L120.472 126.528L130 128L122.472 133.472L124.944 143L116 137.528L107.056 143L109.528 133.472L102 128L111.528 126.528L116 118Z" fill="#F4F4FF" />
  </g>
</svg>
